/* XPM */
static char *exit_xpm[] = {
"32 32 2 1",
"0 c #c8c2b8",
"1 c #3aa655",
"11111111111111111111111111111111",
"10000000000000000000000000000001",
"10000000000000000000000000000001",
"10000000000000000000000000000001",
"10000000000000000000000000000001",
"10000011111001000100100111110001",
"10000010000000101000100001000001",
"10000011100000010000100001000001",
"10000010000000101000100001000001",
"10000011111001000100100001000001",
"10000000000000000000000000000001",
"10000000000000000000000000000001",
"10000000000000000000000000000001",
"10000000000000000000000000000001",
"10000000000000000000000000000001",
"10011100000000000000000000000001",
"10011100000000000000000000000001",
"10011100000000000000000000000001",
"10000000000000000000000000000001",
"10000000000000000000000000000001",
"10000000000000000000000000000001",
"10000000000000000000000000000001",
"10000000000000000000000000000001",
"10000000000000000000000000000001",
"10000000000000000000000000000001",
"10000000000000000000000000000001",
"10000000000000000000000000000001",
"10000000000000000000000000000001",
"10000000000000000000000000000001",
"10000000000000000000000000000001",
"10000000000000000000000000000001",
"11111111111111111111111111111111"
};
